<?xml version="1.0" encoding="utf-8"?>
<svg id="master-artboard" viewBox="0 0 739.4405517578125 533.6761474609375" xmlns="http://www.w3.org/2000/svg" width="739.4405517578125px" height="533.6761474609375px" version="1.1" style="shape-rendering:geometricPrecision; text-rendering:geometricPrecision; image-rendering:optimizeQuality; fill-rule:evenodd; clip-rule:evenodd"><rect id="ee-background" x="0" y="0" width="739.4405517578125" height="533.6761474609375" style="fill: white; fill-opacity: 0; pointer-events: none;"/><g transform="matrix(8.711112022399902, 0, 0, 8.711112022399902, -21.684627532958984, -133.30181694030762)"><path d="M67,46.5L63.9,51h1c0.7,0,1.4,0.5,1.4,1.4c0,0.4,0,1.5,0,1.5l-1.8,2.3l0,0c-0.6,0.9-1.6,1.3-2.8,1.3v3.8c0,0,6.1-5.5,7-6.4  c0.9-0.9,0.9-1.2,0.9-1.8c0,0,0-2.4,0-3s-0.2-0.7-0.4-1C69,48.8,67,46.5,67,46.5z M64.7,28.4c0.3,0.4,0.7,0.6,1.2,0.6h2.5  c0.7,0,1.4-0.5,1.5-1.3v-0.1L67,18.7c-0.1-0.4-0.1-0.6,0-0.9c0-0.7,0.2-1.3,0.6-1.7l-0.9,0.5c-1.7,0.9-4.4,2.3-5.2,6.4v0.1  c0,0.8,0.3,1.7,0.8,2.3L64.7,28.4z M86.6,23c-0.5-0.2-6-2.1-6-2.1c-0.5-0.3-0.7-0.9-0.4-1.4c0.1-0.2,0.3-0.4,0.5-0.5l0.1-1l-5.9-2.4  h-3.4c-1.5,0-2.8,1.2-2.9,2.7l2.8,8.8v0.2c0,1.7-1.4,3.1-3.1,3.1H66c-1,0-1.9-0.4-2.5-1.2l-1.7-2.1c0,0-0.3,0.2-1.4,1.3  c-1.1,1.1-2.9,2.1-4.9,2.3c-8.2,0.7-29,2.6-30.4,2.7c-1.7,0.2-2.6,0.7-2.6,0.7l-9.2-2.7c-0.1,0-0.2-0.1-0.3-0.1  c-0.4,0-0.7,0.2-0.8,0.6c-0.1,0.2-0.1,0.4,0,0.6c0.1,0.2,0.3,0.4,0.5,0.4l6.8,2.9c0,0-0.4,0.5-0.8,1.6s-4,12.4-5.2,15.8  c-1.2,3.4-4.8,7-5,7.3c-0.3,0.4-0.3,0.7-0.3,1c0,0.2,0,0.6,0,0.6S4,69.4,3.4,70.5c-0.8,1.4-0.7,2.2-0.7,2.2H8c0-0.7-0.3-2.1-2.2-2.1  l5.4-8.6c0,0,13.1-15.1,14.6-16.6c2.3-2.3,3.4-3.1,5.5-3.1c0.5,0,1.1,0.1,1.6,0.2l0.2,0.1v0.7H32c-2.6,0-3.7,2-4.7,3.2  c-0.4,0.4-0.6,0.7-0.6,0.7c0.3,0.1,0.6,0.3,0.9,0.4c3.3,2,4.4,6.3,2.4,9.6l-2,3.1c-0.2,0.3-0.3,0.7-0.3,1c0.1,0.4,0.3,0.7,0.6,0.9  l0.5,0.4c1.9,1.4,3,3.8,2.8,6.2h4.8c0,0,0.1-2-2.3-2c-2.3-2.4-2.6-6-0.8-8.7l0,0l4.6-6.9v-4.1h0.8c1,0,2,0.2,2.9,0.5  c0,0,6.5,2.5,8.1,3.1c1.1,0.4,2.4,0.6,3.3,0.8c-0.2-3.7-2-6.6-4.2-6.6V44c3.7,0,6,3.9,6.1,8.2l2.3,19c1.3,0.4,2.2,1.7,2.3,3.1l2,2.3  h4.9c-0.1-1.4-1.3-2.5-2.8-2.5c-0.4,0-0.8-0.1-1-0.3c-1.4-1.4-2.2-3.2-2.4-5.1c0-0.1-0.1-0.2-0.1-0.3c0,0,0-13.3,0-14.3  c0-1.1,0.4-1.7,0.9-2.4c0.5-0.8,6.7-9.4,7-9.8c0.4-0.6,0.7-1.1,0.7-2.2c0-0.7,0-1.7,0-2.5c0-1.1,0.4-1.6,0.8-2.1s4.9-6.2,4.9-6.2  l-1.3-1.7h1l3,2.7c0,0,0.3,0.6,1.4,0.6l5.6-0.7c0.6-0.1,1.2-0.3,1.5-0.9s1.4-2.4,1.4-2.4s0.2-0.4,0.2-0.8v-1.1  C87.2,23.7,87.1,23.2,86.6,23z M76.6,21.6c-0.7,0-1.3-0.6-1.3-1.3c0-0.7,0.6-1.3,1.3-1.3c0.7,0,1.3,0.6,1.3,1.3  C78,21,77.4,21.6,76.6,21.6z M86.1,24.8c0,0.2-0.1,0.3-0.1,0.4c0,0-0.4,0.6-0.5,0.7s-0.3,0.2-0.4,0.2h-0.6c-0.1,0-0.2,0-0.3-0.1  l-1.4-1c-0.2-0.1-0.2-0.3-0.2-0.5v-0.3c0-0.3,0.3-0.6,0.6-0.6h2.4c0.3,0,0.6,0.3,0.6,0.6L86.1,24.8L86.1,24.8z" style="fill-opacity: 1; fill: rgb(179, 150, 113);"/><text x="0" y="105" fill="#000000" font-size="5px" font-weight="bold" font-family="'Helvetica Neue', Helvetica, Arial-Unicode, Arial, Sans-serif" style="fill: rgb(0, 0, 0); font-size: 5px; font-weight: bold; font-family: 'Helvetica Neue', Helvetica, Arial-Unicode, Arial, sans-serif; white-space: pre;">Created by Becca</text><text x="0" y="110" fill="#000000" font-size="5px" font-weight="bold" font-family="'Helvetica Neue', Helvetica, Arial-Unicode, Arial, Sans-serif" style="fill: rgb(0, 0, 0); font-size: 5px; font-weight: bold; font-family: 'Helvetica Neue', Helvetica, Arial-Unicode, Arial, sans-serif; white-space: pre;">from the Noun Project</text></g></svg>